<svg width="48" height="50" viewBox="0 0 56 58" fill="none" xmlns="http://www.w3.org/2000/svg">
<path d="M48.9378 38.4375H20.0914C19.6128 38.4383 19.1481 38.2763 18.7737 37.978C18.3994 37.6798 18.1375 37.2631 18.0313 36.7964L13.1741 15.6352C13.103 15.326 13.1026 15.0049 13.1728 14.6956C13.2431 14.3863 13.3822 14.0968 13.5797 13.8487C13.7773 13.6006 14.0283 13.4002 14.314 13.2625C14.5997 13.1248 14.9128 13.0533 15.23 13.0533H53.7992C54.1168 13.0526 54.4304 13.1237 54.7166 13.2611C55.0029 13.3985 55.2544 13.5988 55.4524 13.847C55.6505 14.0952 55.7899 14.3849 55.8604 14.6946C55.9309 15.0042 55.9305 15.3257 55.8594 15.6352L50.9938 36.7964C50.8877 37.2624 50.6265 37.6786 50.253 37.9767C49.8794 38.2749 49.4158 38.4373 48.9378 38.4375V38.4375ZM21.7705 34.2188H47.2588L51.1499 17.2763H17.878L21.7705 34.2188Z" fill="#FFFAFA"/>
<path d="M24.2187 57.2812C22.6201 57.2812 21.0573 56.8072 19.728 55.919C18.3987 55.0308 17.3627 53.7684 16.7509 52.2914C16.1391 50.8144 15.979 49.1892 16.2909 47.6212C16.6028 46.0532 17.3727 44.6129 18.5031 43.4825C19.6336 42.352 21.0738 41.5822 22.6418 41.2703C24.2098 40.9584 25.835 41.1185 27.312 41.7303C28.789 42.3421 30.0514 43.3781 30.9396 44.7074C31.8278 46.0366 32.3019 47.5994 32.3019 49.1981C32.2996 51.3412 31.4473 53.3959 29.9319 54.9113C28.4165 56.4267 26.3618 57.279 24.2187 57.2812V57.2812ZM24.2187 45.3351C23.4544 45.3351 22.7072 45.5618 22.0717 45.9865C21.4361 46.4112 20.9408 47.0148 20.6484 47.721C20.356 48.4272 20.2795 49.2043 20.4287 49.9539C20.578 50.7036 20.9461 51.3922 21.4867 51.9326C22.0273 52.4729 22.716 52.8409 23.4657 52.9898C24.2154 53.1388 24.9925 53.062 25.6986 52.7693C26.4047 52.4766 27.0081 51.9811 27.4325 51.3454C27.857 50.7098 28.0834 49.9625 28.0831 49.1981C28.082 48.1737 27.6745 47.1916 26.95 46.4673C26.2254 45.7431 25.2432 45.3359 24.2187 45.3351V45.3351Z" fill="#FFFAFA"/>
<path d="M44.8091 57.2812C43.2104 57.2812 41.6476 56.8072 40.3183 55.919C38.9891 55.0308 37.953 53.7684 37.3412 52.2914C36.7295 50.8144 36.5694 49.1892 36.8813 47.6212C37.1932 46.0532 37.963 44.6129 39.0935 43.4825C40.2239 42.352 41.6642 41.5822 43.2321 41.2703C44.8001 40.9584 46.4254 41.1185 47.9024 41.7303C49.3794 42.3421 50.6418 43.3781 51.53 44.7074C52.4181 46.0366 52.8922 47.5994 52.8922 49.1981C52.89 51.3412 52.0376 53.3959 50.5222 54.9113C49.0069 56.4267 46.9522 57.279 44.8091 57.2812V57.2812ZM44.8091 45.3351C44.0447 45.3351 43.2975 45.5618 42.662 45.9865C42.0265 46.4112 41.5312 47.0148 41.2387 47.721C40.9463 48.4272 40.8698 49.2043 41.0191 49.9539C41.1683 50.7036 41.5365 51.3922 42.0771 51.9326C42.6176 52.4729 43.3063 52.8409 44.056 52.9898C44.8058 53.1388 45.5828 53.062 46.2889 52.7693C46.995 52.4766 47.5984 51.9811 48.0229 51.3454C48.4473 50.7098 48.6737 49.9625 48.6735 49.1981C48.6723 48.1737 48.2648 47.1916 47.5403 46.4673C46.8158 45.7431 45.8335 45.3359 44.8091 45.3351Z" fill="#FFFAFA"/>
<path d="M15.23 17.272C14.7872 17.272 14.3557 17.1326 13.9966 16.8737C13.6374 16.6147 13.3688 16.2493 13.2289 15.8292L9.61345 4.96875H2.9422C2.38276 4.96875 1.84623 4.74651 1.45065 4.35093C1.05506 3.95534 0.832825 3.41882 0.832825 2.85938C0.832825 2.29993 1.05506 1.76341 1.45065 1.36782C1.84623 0.972237 2.38276 0.75 2.9422 0.75H11.1406C11.5834 0.750041 12.0149 0.889412 12.3741 1.14837C12.7333 1.40732 13.0018 1.77273 13.1417 2.19281L17.2381 14.4961C17.3437 14.8131 17.3725 15.1507 17.322 15.4811C17.2716 15.8114 17.1434 16.1251 16.948 16.3962C16.7526 16.6672 16.4955 16.888 16.1981 17.0403C15.9006 17.1926 15.5712 17.272 15.237 17.272H15.23Z" fill="#FFFAFA"/>
</svg>
