<svg width="22" height="22" viewBox="0 0 22 22" fill="none" xmlns="http://www.w3.org/2000/svg">
<g clip-path="url(#clip0_2_31)">
<path d="M8.55199 0C3.83008 0 0.00143433 3.82865 0.00143433 8.55059C0.00143433 13.2725 3.83008 17.1012 8.55202 17.1012C10.3678 17.1012 12.0517 16.5348 13.4359 15.5701L13.4369 15.5691L19.7784 21.9106C19.8961 22.0283 20.0832 22.0313 20.204 21.9106L21.9131 20.2015C22.0308 20.0838 22.0247 19.8887 21.9121 19.776L15.5715 13.4355C16.5362 12.0503 17.1026 10.3663 17.1026 8.55059C17.1026 3.82865 13.2739 0 8.55199 0ZM8.55199 15.0893C4.94062 15.0893 2.01331 12.162 2.01331 8.55059C2.01331 4.93922 4.94065 2.01191 8.55199 2.01191C12.1633 2.01191 15.0907 4.93922 15.0907 8.55059C15.0907 12.162 12.1634 15.0893 8.55199 15.0893Z" fill="#0F0F0F"/>
</g>
<defs>
<clipPath id="clip0_2_31">
<rect width="22" height="22" fill="white"/>
</clipPath>
</defs>
</svg>
